# xmcd
#
# Track frame offsets:
#	150
#	17416
#	30182
#	49477
#	61033
#	73674
#	86152
#	103345
#	116133
#	135369
#	146934
#	159392
#
# Disc length: 2293 seconds
#
# Revision: 1
# Processed by: cddbd v1.5.1PL2 Copyright (c) Steve Scherf et al.
# Submitted via: audiograbber 1.83.01
#
DISCID=a308f30c
DTITLE=Chartbuster - cb20243
DYEAR=1900
DGENRE=
TTITLE0=Oak Ridge Boys - Elvira
TTITLE1=Oak Ridge Boys - American Made
TTITLE2=Oak Ridge Boys - It Takes A Little Rain
TTITLE3=Oak Ridge Boys - Bobbie Sue
TTITLE4=Oak Ridge Boys - Tryin' To Love Two Women
TTITLE5=Oak Ridge Boys - Thank God For Kids
TTITLE6=Oak Ridge Boys - Elvira (Vocal)
TTITLE7=Oak Ridge Boys - American Made (Vocal)
TTITLE8=Oak Ridge Boys - It Takes A Little Rain (Vocal)
TTITLE9=Oak Ridge Boys - Bobbie Sue (Vocal)
TTITLE10=Oak Ridge Boys - Tryin' To Love Two Women (Vocal)
TTITLE11=Oak Ridge Boys - Thank God For Kids (Vocal)
EXTD=
EXTT0=
EXTT1=
EXTT2=
EXTT3=
EXTT4=
EXTT5=
EXTT6=
EXTT7=
EXTT8=
EXTT9=
EXTT10=
EXTT11=
PLAYORDER=
